<?xml version="1.0" encoding="UTF-8" standalone="no"?>
<svg
   xmlns:dc="http://purl.org/dc/elements/1.1/"
   xmlns:cc="http://creativecommons.org/ns#"
   xmlns:rdf="http://www.w3.org/1999/02/22-rdf-syntax-ns#"
   xmlns:svg="http://www.w3.org/2000/svg"
   xmlns="http://www.w3.org/2000/svg"
   xmlns:sodipodi="http://sodipodi.sourceforge.net/DTD/sodipodi-0.dtd"
   xmlns:inkscape="http://www.inkscape.org/namespaces/inkscape"
   viewBox="0 0 1122.52 160"
   height="160"
   width="1122.52"
   xml:space="preserve"
   id="svg2"
   version="1.1"
   sodipodi:docname="MC_logo.svg"
   inkscape:version="0.92.3 (2405546, 2018-03-11)"><sodipodi:namedview
     pagecolor="#ffffff"
     bordercolor="#666666"
     borderopacity="1"
     objecttolerance="10"
     gridtolerance="10"
     guidetolerance="10"
     inkscape:pageopacity="0"
     inkscape:pageshadow="2"
     inkscape:window-width="1800"
     inkscape:window-height="917"
     id="namedview4166"
     showgrid="false"
     inkscape:zoom="2"
     inkscape:cx="867.07315"
     inkscape:cy="74.436679"
     inkscape:window-x="0"
     inkscape:window-y="0"
     inkscape:window-maximized="0"
     inkscape:current-layer="svg2" /><metadata
     id="metadata8"><rdf:RDF><cc:Work
         rdf:about=""><dc:format>image/svg+xml</dc:format><dc:type
           rdf:resource="http://purl.org/dc/dcmitype/StillImage" /></cc:Work></rdf:RDF></metadata><defs
     id="defs6"><clipPath
       id="clipPath18"
       clipPathUnits="userSpaceOnUse"><path
         id="path16"
         d="M 0,120 H 841.89 V 0 H 0 Z" /></clipPath><clipPath
       id="clipPath106"
       clipPathUnits="userSpaceOnUse"><path
         id="path104"
         d="m 52.393,110.392 54.758,-67.098 17.62,19.919 -39.592,47.253 z" /></clipPath><linearGradient
       id="linearGradient118"
       spreadMethod="pad"
       gradientTransform="matrix(38.101311,-47.173126,-47.173126,-38.101311,70.546364,109.13256)"
       gradientUnits="userSpaceOnUse"
       y2="0"
       x2="1"
       y1="0"
       x1="0"><stop
         id="stop112"
         offset="0"
         style="stop-opacity:1;stop-color:#ed1c24" /><stop
         id="stop114"
         offset="0.23359315"
         style="stop-opacity:1;stop-color:#ed1c24" /><stop
         id="stop116"
         offset="1"
         style="stop-opacity:1;stop-color:#6a111c" /></linearGradient><clipPath
       id="clipPath128"
       clipPathUnits="userSpaceOnUse"><path
         id="path126"
         d="M 50.443,55.736 90.033,8.485 122.822,8.562 68.061,75.656 Z" /></clipPath><linearGradient
       id="linearGradient140"
       spreadMethod="pad"
       gradientTransform="matrix(42.090767,-62.179493,-62.179493,-42.090767,64.756744,64.465668)"
       gradientUnits="userSpaceOnUse"
       y2="0"
       x2="1"
       y1="0"
       x1="0"><stop
         id="stop134"
         offset="0"
         style="stop-opacity:1;stop-color:#58595b" /><stop
         id="stop136"
         offset="0.23359315"
         style="stop-opacity:1;stop-color:#58595b" /><stop
         id="stop138"
         offset="1"
         style="stop-opacity:1;stop-color:#231f20" /></linearGradient><clipPath
       id="clipPath150"
       clipPathUnits="userSpaceOnUse"><path
         id="path148"
         d="M 52.375,110.392 7.174,55.739 h 31.448 l 46.557,54.727 z" /></clipPath><linearGradient
       id="linearGradient162"
       spreadMethod="pad"
       gradientTransform="matrix(32.451405,46.20813,46.20813,-32.451405,24.929975,52.849117)"
       gradientUnits="userSpaceOnUse"
       y2="0"
       x2="1"
       y1="0"
       x1="0"><stop
         id="stop156"
         offset="0"
         style="stop-opacity:1;stop-color:#58595b" /><stop
         id="stop158"
         offset="0.23359315"
         style="stop-opacity:1;stop-color:#58595b" /><stop
         id="stop160"
         offset="1"
         style="stop-opacity:1;stop-color:#231f20" /></linearGradient><clipPath
       id="clipPath172"
       clipPathUnits="userSpaceOnUse"><path
         id="path170"
         d="M 136.615,63.608 90.033,8.485 l 32.805,0.077 46.631,55.046 z" /></clipPath><linearGradient
       id="linearGradient184"
       spreadMethod="pad"
       gradientTransform="matrix(37.128899,51.177708,51.177708,-37.128899,116.19171,17.356644)"
       gradientUnits="userSpaceOnUse"
       y2="0"
       x2="1"
       y1="0"
       x1="0"><stop
         id="stop178"
         offset="0"
         style="stop-opacity:1;stop-color:#ed1c24" /><stop
         id="stop180"
         offset="0.23359315"
         style="stop-opacity:1;stop-color:#ed1c24" /><stop
         id="stop182"
         offset="1"
         style="stop-opacity:1;stop-color:#6a111c" /></linearGradient></defs><g
     transform="matrix(1.3333333,0,0,-1.3333333,0,160)"
     id="g10"><g
       id="g12"><g
         clip-path="url(#clipPath18)"
         id="g14"><g
           transform="translate(326.6001,31.1007)"
           id="g20"><path
             id="path22"
             style="fill:#ed1c24;fill-opacity:1;fill-rule:nonzero;stroke:none"
             d="m 0,0 c -10.471,0 -16.352,4.403 -19.202,7.253 -5.51,5.512 -7.164,13.138 -7.164,23.976 0,8.731 0.646,18.558 6.891,25.262 3.305,3.584 9.552,7.809 19.751,7.809 h 19.44 V 59.89 H 2.386 c -4.775,0 -13.317,-0.547 -18.647,-7.439 -4.409,-5.698 -4.777,-14.146 -4.777,-21.311 0,-5.052 0,-13.047 4.227,-18.924 C -11.392,4.682 -2.02,4.403 1.01,4.403 H 20.728 V 0 Z" /></g><g
           transform="translate(350.334,28.0958)"
           id="g24"><path
             id="path26"
             style="fill:#ed1c24;fill-opacity:1;fill-rule:nonzero;stroke:none"
             d="m 0,0 h -23.734 c -10.906,0 -17.617,4.423 -21.327,8.133 -5.714,5.717 -8.044,13.279 -8.044,26.102 0,9.893 0.932,20.049 7.696,27.31 3.013,3.267 9.886,8.766 21.951,8.766 H -1.013 V 59.89 h -20.335 c -4.901,0 -11.921,-0.65 -16.269,-6.273 -3.647,-4.712 -4.149,-12.143 -4.149,-19.472 0,-4.809 0,-12.078 3.661,-17.168 3.901,-5.424 10.517,-6.563 15.381,-6.563 l 22.724,0 z" /></g><g
           transform="translate(361.4541,95.3803)"
           id="g28"><path
             id="path30"
             style="fill:#ed1c24;fill-opacity:1;fill-rule:nonzero;stroke:none"
             d="m 0,0 36.889,0.02 c 3.764,0 9.092,-0.732 12.223,-5.509 2.477,-3.766 2.841,-9.004 2.841,-13.781 0,-3.95 -0.182,-9.188 -2.841,-13.412 -2.853,-4.503 -7.631,-5.6 -11.489,-5.6 H 18.718 v -0.464 l 33.07,-25.534 h -7.254 l -31.326,24.251 c -1.472,1.283 -1.745,1.468 -1.745,2.568 v 1.472 c 0,1.377 0.918,2.109 2.202,2.109 h 24.603 c 3.213,0 5.604,1.933 6.611,3.586 1.013,1.745 1.748,4.686 1.748,11.391 0,2.847 0.091,9.277 -3.03,12.218 -2.391,2.204 -6.248,2.295 -7.629,2.295 L 5.245,-4.315 5.107,-64.28 H 0.145 Z" /></g><g
           transform="translate(375.9231,58.2358)"
           id="g32"><path
             id="path34"
             style="fill:#ed1c24;fill-opacity:1;fill-rule:nonzero;stroke:none"
             d="m 0,0 c 0.141,-0.126 0.314,-0.27 0.518,-0.448 l 0.725,-0.56 V 0.26 H 0 Z M 46.131,-30.14 H 29.038 L -3.427,-4.982 c -1.444,1.254 -2.584,2.246 -2.584,4.666 v 1.472 c 0,2.964 2.189,5.115 5.207,5.115 h 24.603 c 2.166,0 3.592,1.402 4.044,2.144 0.871,1.5 1.309,4.733 1.309,9.827 0.002,2.378 0.006,8.059 -2.085,10.03 -0.584,0.538 -2.118,1.478 -5.568,1.478 L -6.226,29.817 -6.364,-30.14 h -10.958 l -0.16,70.289 39.901,0.022 c 6.794,0 11.751,-2.31 14.738,-6.867 C 40.093,28.84 40.49,22.999 40.49,17.875 40.49,12.803 40.089,7.473 37.186,2.862 34.323,-1.658 29.34,-4.143 23.154,-4.143 H 12.46 Z" /></g><g
           transform="translate(191.7997,89.3323)"
           id="g36"><path
             id="path38"
             style="fill:#ed1c24;fill-opacity:1;fill-rule:nonzero;stroke:none"
             d="m 0,0 c 0,3.424 2.342,5.945 5.945,5.945 3.602,0 5.223,-2.339 6.845,-6.215 l 21.348,-51.337 c 0.268,-0.725 0.629,-1.984 1.532,-1.984 0.9,0 1.259,1.259 1.529,1.984 L 58.547,-0.27 c 1.62,3.876 3.243,6.215 6.846,6.215 3.6,0 5.944,-2.521 5.944,-5.945 V -57.826 H 66.473 V 0 c 0,1.264 -0.81,1.623 -1.26,1.623 -0.542,0 -1.442,-1.082 -1.71,-1.801 l -21.44,-51.523 c -1.622,-3.868 -3.151,-6.847 -6.393,-6.847 -3.245,0 -4.776,2.979 -6.396,6.847 L 7.838,-0.178 C 7.565,0.541 6.666,1.623 6.126,1.623 5.674,1.623 4.863,1.264 4.863,0 V -57.826 H 0 Z" /></g><g
           transform="translate(227.4696,27.7788)"
           id="g40"><path
             id="path42"
             style="fill:#ed1c24;fill-opacity:1;fill-rule:nonzero;stroke:none"
             d="M 0,0 C -5.527,0 -7.718,5.231 -9.168,8.693 L -27.801,53.478 V 0.722 h -10.875 v 60.832 c 0,5.187 3.765,8.951 8.951,8.951 6.245,0 8.439,-5.244 9.617,-8.062 L -0.001,14.095 20.102,62.438 c 1.18,2.823 3.372,8.067 9.621,8.067 5.185,0 8.95,-3.764 8.95,-8.951 V 0.722 H 27.798 V 53.473 L 9.168,8.698 C 7.714,5.231 5.521,0 0,0" /></g><path
           id="path44"
           style="fill:#ed1c24;fill-opacity:1;fill-rule:nonzero;stroke:none"
           d="m 280.206,94.558 h 4.864 V 31.506 h -4.864 z" /><path
           id="path46"
           style="fill:#ed1c24;fill-opacity:1;fill-rule:nonzero;stroke:none"
           d="m 288.076,28.501 h -10.875 v 69.064 h 10.875 z" /><g
           transform="translate(526.6322,30.0911)"
           id="g48"><path
             id="path50"
             style="fill:#231f20;fill-opacity:1;fill-rule:nonzero;stroke:none"
             d="m 0,0 c -10.473,0 -16.349,4.412 -19.202,7.256 -5.509,5.515 -7.162,13.138 -7.162,23.979 0,8.728 0.643,18.555 6.889,25.262 3.311,3.581 9.554,7.806 19.754,7.806 h 19.44 V 59.897 H 2.386 c -4.769,0 -13.322,-0.552 -18.644,-7.442 -4.409,-5.697 -4.778,-14.146 -4.778,-21.313 0,-5.054 0,-13.041 4.226,-18.926 5.422,-7.528 14.785,-7.804 17.823,-7.804 h 19.712 l 0,-4.412 z" /></g><g
           transform="translate(550.3633,27.0861)"
           id="g52"><path
             id="path54"
             style="fill:#231f20;fill-opacity:1;fill-rule:nonzero;stroke:none"
             d="m 0,0 h -23.731 c -8.613,0 -15.987,2.812 -21.324,8.133 -5.717,5.721 -8.046,13.285 -8.046,26.108 0,9.893 0.932,20.048 7.695,27.31 3.022,3.267 9.902,8.763 21.954,8.763 H -1.007 V 59.897 h -20.338 c -4.903,0 -11.923,-0.65 -16.265,-6.274 -3.649,-4.715 -4.152,-12.146 -4.152,-19.475 0,-4.808 0,-12.074 3.662,-17.172 3.086,-4.286 8.406,-6.553 15.382,-6.553 l 22.718,0 z" /></g><g
           transform="translate(561.4877,94.3734)"
           id="g56"><path
             id="path58"
             style="fill:#231f20;fill-opacity:1;fill-rule:nonzero;stroke:none"
             d="m 0,0 36.889,0.02 c 3.767,0 9.097,-0.732 12.22,-5.509 2.483,-3.766 2.85,-9.004 2.85,-13.78 0,-3.951 -0.185,-9.186 -2.85,-13.409 -2.847,-4.501 -7.626,-5.607 -11.483,-5.607 H 18.715 v -0.461 l 33.077,-25.536 h -7.253 l -31.331,24.253 c -1.47,1.283 -1.746,1.471 -1.746,2.574 v 1.468 c 0,1.377 0.919,2.112 2.204,2.112 h 24.603 c 3.214,0 5.606,1.93 6.613,3.584 1.01,1.743 1.75,4.684 1.75,11.388 0,2.85 0.09,9.281 -3.032,12.221 -2.393,2.201 -6.249,2.297 -7.629,2.297 L 5.248,-4.312 5.104,-64.282 H 0.15 Z" /></g><g
           transform="translate(575.9553,57.2305)"
           id="g60"><path
             id="path62"
             style="fill:#231f20;fill-opacity:1;fill-rule:nonzero;stroke:none"
             d="m 0,0 c 0.142,-0.126 0.316,-0.272 0.522,-0.451 l 0.72,-0.557 V 0.263 L 0,0.263 Z M 46.135,-30.144 H 29.044 l -32.469,25.16 c -1.445,1.258 -2.586,2.251 -2.586,4.673 v 1.467 c 0,2.966 2.191,5.118 5.21,5.118 h 24.603 c 2.169,0 3.594,1.4 4.046,2.141 0.87,1.506 1.31,4.739 1.31,9.826 0.002,2.377 0.006,8.061 -2.087,10.032 -0.584,0.537 -2.122,1.48 -5.568,1.48 l -27.724,0.066 -0.144,-59.963 h -10.951 l -0.165,70.292 39.902,0.022 c 6.797,0 11.755,-2.312 14.736,-6.87 2.942,-4.463 3.34,-10.303 3.34,-15.426 0,-5.071 -0.402,-10.398 -3.314,-15.012 -2.86,-4.52 -7.84,-7.009 -14.024,-7.009 H 12.461 Z" /></g><g
           transform="translate(637.7559,30.0911)"
           id="g64"><path
             id="path66"
             style="fill:#231f20;fill-opacity:1;fill-rule:nonzero;stroke:none"
             d="M 0,0 C -2.207,0 -4.685,-0.091 -6.707,1.928 -8.635,3.86 -8.732,6.525 -8.732,8.911 l 0.026,55.445 46.461,-0.053 V 59.897 L -3.742,59.752 -3.772,35.093 h 40.606 v -4.41 H -3.772 V 7.81 c 0,-0.733 0.276,-2.022 0.922,-2.571 0.643,-0.551 3.035,-0.827 4.136,-0.827 h 36.836 l 0,-4.412 z" /></g><g
           transform="translate(637.2041,27.0861)"
           id="g68"><path
             id="path70"
             style="fill:#231f20;fill-opacity:1;fill-rule:nonzero;stroke:none"
             d="m 0,0 c -2.046,0 -5.467,0 -8.279,2.808 -2.907,2.911 -2.907,6.79 -2.907,9.109 l 0.028,58.453 52.471,-0.059 V 59.907 L -0.188,59.762 -0.211,41.105 H 40.391 V 30.683 H -0.214 V 10.816 c 0,-0.047 0.006,-0.108 0.017,-0.174 0.573,-0.115 1.424,-0.219 2.034,-0.219 H 41.68 V 0 H 0.552 C -1.0139555,-0.00879249 2.0316021,0.00550969 0,0 Z"
             inkscape:connector-curvature="0"
             sodipodi:nodetypes="cccccccccccscscccc" /></g><g
           transform="translate(696.9472,38.5445)"
           id="g72"><path
             id="path74"
             style="fill:#231f20;fill-opacity:1;fill-rule:nonzero;stroke:none"
             d="M 0,0 C 0,-1.837 0.185,-2.853 0.646,-3.308 1.38,-4.042 3.032,-4.042 3.581,-4.042 h 23.056 c 4.321,0 11.397,1.01 15.439,8.542 2.568,4.869 3.493,11.57 3.493,20.672 0,6.889 -0.467,13.775 -4.966,19.383 -3.581,4.5 -9.097,6.889 -15.155,6.889 l -25.492,0.073 z m 4.042,-8.453 c -2.202,0 -4.864,0.096 -6.704,1.561 -2.023,1.565 -2.302,3.584 -2.302,5.515 l 0.238,57.206 29.895,0.02 c 3.402,0 11.577,-0.456 18.465,-7.439 6.983,-7.074 7.259,-16.349 7.259,-23.607 0,-7.532 -0.552,-18.099 -6.434,-25.537 -3.302,-4.227 -8.817,-7.719 -17.634,-7.719 z" /></g><g
           transform="translate(699.9821,37.5236)"
           id="g76"><path
             id="path78"
             style="fill:#231f20;fill-opacity:1;fill-rule:nonzero;stroke:none"
             d="m 0,0 c 0.147,-0.009 0.326,-0.015 0.546,-0.015 h 23.056 c 6.093,0 10.279,2.277 12.791,6.957 2.164,4.106 3.135,10.05 3.135,19.252 0,6.14 -0.331,12.551 -4.306,17.501 -2.958,3.72 -7.505,5.765 -12.809,5.765 L -0.07,49.524 -0.029,1.024 C -0.029,0.584 -0.018,0.251 0,0 M 23.79,-10.438 H 1.007 c -2.025,0 -5.791,0 -8.577,2.217 -3.434,2.656 -3.434,6.441 -3.434,7.866 l 0.249,60.21 32.886,0.022 c 10.238,0 16.857,-4.532 20.608,-8.335 8.125,-8.23 8.125,-19.177 8.125,-25.718 0,-8.589 -0.804,-19.463 -7.083,-27.4 -3.152,-4.036 -9.19,-8.862 -19.991,-8.862" /></g><path
           id="path80"
           style="fill:#231f20;fill-opacity:1;fill-rule:nonzero;stroke:none"
           d="m 761.862,94.394 h 4.961 V 30.091 h -4.961 z" /><path
           id="path82"
           style="fill:#231f20;fill-opacity:1;fill-rule:nonzero;stroke:none"
           d="M 769.828,27.086 H 758.856 V 97.4 h 10.972 z" /><g
           transform="translate(803.2276,29.9913)"
           id="g84"><path
             id="path86"
             style="fill:#231f20;fill-opacity:1;fill-rule:nonzero;stroke:none"
             d="M 0,0 V 59.796 H -23.848 V 64.2 h 52.66 V 59.796 H 4.961 L 4.961,0 Z" /></g><g
           transform="translate(811.1938,26.9863)"
           id="g88"><path
             id="path90"
             style="fill:#231f20;fill-opacity:1;fill-rule:nonzero;stroke:none"
             d="M 0,0 H -10.972 V 59.796 H -34.82 V 70.211 H 23.851 V 59.796 H 0 Z" /></g><g
           transform="translate(436.2104,41.145)"
           id="g92"><path
             id="path94"
             style="fill:#ed1c24;fill-opacity:1;fill-rule:nonzero;stroke:none"
             d="m 0,0 c 5.401,-6.035 13.872,-6.035 19.907,-6.035 6.037,0 14.499,0 19.903,6.035 5.225,5.853 5.404,14.591 5.404,21.886 0,7.296 -0.179,16.034 -5.404,21.89 C 34.406,49.81 25.944,49.81 19.907,49.81 13.872,49.81 5.401,49.81 0,43.776 -5.224,37.92 -5.407,29.182 -5.407,21.886 -5.407,14.591 -5.224,5.853 0,0 m 42.968,47.287 c 7.113,-7.114 7.471,-18.105 7.471,-25.401 0,-7.295 -0.358,-18.281 -7.471,-25.399 -6.483,-6.484 -16.034,-6.848 -23.061,-6.848 -7.024,0 -16.573,0.364 -23.056,6.848 -7.121,7.118 -7.479,18.104 -7.479,25.399 0,7.296 0.358,18.287 7.479,25.401 6.483,6.486 16.032,6.846 23.056,6.846 7.027,0 16.578,-0.36 23.061,-6.846" /></g><g
           transform="translate(456.1171,87.9503)"
           id="g96"><path
             id="path98"
             style="fill:#ed1c24;fill-opacity:1;fill-rule:nonzero;stroke:none"
             d="m 0,0 c -5.555,0 -13.161,0 -17.667,-5.034 -4.285,-4.803 -4.64,-12.146 -4.64,-19.884 0,-7.738 0.355,-15.081 4.643,-19.885 4.503,-5.031 12.109,-5.031 17.664,-5.031 5.862,0 13.157,0 17.664,5.034 4.282,4.798 4.638,12.142 4.638,19.882 0,7.74 -0.356,15.084 -4.641,19.889 C 13.157,0 5.862,0 0,0 m 0,-60.172 c -6.099,0 -17.453,0 -25.181,7.729 -8.359,8.355 -8.359,21.302 -8.359,27.525 0,6.224 0,19.174 8.359,27.527 7.724,7.724 19.08,7.724 25.181,7.724 6.104,0 17.463,0 25.187,-7.725 8.351,-8.354 8.351,-21.304 8.351,-27.526 0,-6.222 0,-19.169 -8.35,-27.525 C 17.459,-60.172 6.102,-60.172 0,-60.172" /></g></g></g><g
       id="g100"><g
         clip-path="url(#clipPath106)"
         id="g102"><g
           id="g108"><g
             id="g110"><path
               id="path120"
               style="fill:url(#linearGradient118);stroke:none"
               d="m 52.393,110.392 54.758,-67.098 17.62,19.919 -39.592,47.253 z" /></g></g></g></g><g
       id="g122"><g
         clip-path="url(#clipPath128)"
         id="g124"><g
           id="g130"><g
             id="g132"><path
               id="path142"
               style="fill:url(#linearGradient140);stroke:none"
               d="M 50.443,55.736 90.033,8.485 122.822,8.562 68.061,75.656 Z" /></g></g></g></g><g
       id="g144"><g
         clip-path="url(#clipPath150)"
         id="g146"><g
           id="g152"><g
             id="g154"><path
               id="path164"
               style="fill:url(#linearGradient162);stroke:none"
               d="M 52.375,110.392 7.174,55.739 h 31.448 l 46.557,54.727 z" /></g></g></g></g><g
       id="g166"><g
         clip-path="url(#clipPath172)"
         id="g168"><g
           id="g174"><g
             id="g176"><path
               id="path186"
               style="fill:url(#linearGradient184);stroke:none"
               d="M 136.615,63.608 90.033,8.485 l 32.805,0.077 46.631,55.046 z" /></g></g></g></g></g></svg>