<?xml version="1.0" encoding="UTF-8"?>
<svg xmlns="http://www.w3.org/2000/svg" width="600" height="300" viewBox="0 0 600 300" fill="none">
  <path fill-rule="evenodd" clip-rule="evenodd" d="M109.384 125.057V127.324H129.338V140.018H109.384V202.883H96.2307V140.018H84.1373V127.324H96.2307V125.057C96.2307 104.958 107.72 93.6228 129.338 95.1342V107.829C116.186 106.77 109.384 111.909 109.384 125.057ZM577.323 165.103C577.323 153.769 569.765 146.668 559.333 146.668C548.902 146.668 541.344 153.769 541.344 165.103C541.344 176.439 548.902 183.54 559.333 183.54C569.765 183.54 577.323 176.439 577.323 165.103ZM600 95V202.883H577.323V195.782C572.334 201.525 564.926 205 554.798 205C534.994 205 518.667 187.622 518.667 165.103C518.667 142.586 534.994 125.207 554.798 125.207C564.926 125.207 572.334 128.683 577.323 134.425V95H600ZM189.953 202.884H203.104V127.324H189.953V202.884ZM187.686 104.806C187.686 99.9698 191.615 95.8907 196.605 95.8907C201.443 95.8907 205.373 99.9698 205.373 104.806C205.373 109.642 201.443 113.571 196.605 113.571C191.615 113.571 187.686 109.642 187.686 104.806ZM214.561 165.103C214.561 142.738 231.493 125.358 254.319 125.358C269.286 125.358 281.985 133.216 287.73 145.156L276.694 151.502C272.913 143.493 264.449 138.202 254.319 138.202C239.203 138.202 227.714 149.841 227.714 165.103C227.714 180.216 239.203 191.852 254.319 191.852C264.6 191.852 272.913 186.562 277.148 178.705L288.335 185.203C281.985 196.989 269.135 204.849 254.319 204.849C231.493 204.849 214.561 187.469 214.561 165.103ZM356.553 159.662H306.062C308.177 146.516 318.004 137.751 332.214 137.751C343.551 137.751 354.285 144.702 356.553 159.662ZM355.193 181.425C351.413 187.622 343.854 192.456 333.424 192.456C319.363 192.456 308.63 184.75 306.062 171.147H369.403C369.706 169.184 369.856 167.218 369.856 165.256C369.856 144.097 355.041 125.358 332.214 125.358C308.63 125.358 292.605 142.738 292.605 165.103C292.605 187.772 308.782 204.849 333.12 204.849C348.239 204.849 359.728 198.05 366.38 187.772L355.193 181.425ZM427.418 125.812V151.502C418.045 149.991 404.741 153.769 404.741 168.73V202.883H382.066V127.324H404.741V140.773C407.764 130.647 417.895 125.812 427.418 125.812ZM510.665 202.884V156.49C510.665 136.089 497.663 125.208 482.395 125.208C472.418 125.208 464.859 128.836 460.776 134.425V127.324H438.1V202.884H460.776V161.629C460.776 150.898 466.522 146.063 474.837 146.063C482.093 146.063 487.988 150.446 487.988 159.814V202.884H510.665ZM39.7594 138.202C54.8767 138.202 66.5169 149.841 66.5169 165.103C66.5169 180.367 54.8767 192.005 39.7594 192.005C24.7932 192.005 13.1531 180.367 13.1531 165.103C13.1531 149.841 24.7932 138.202 39.7594 138.202ZM39.7594 125.358C17.6879 125.358 0 142.738 0 165.103C0 187.469 17.6879 204.849 39.7594 204.849C61.832 204.849 79.671 187.469 79.671 165.103C79.671 142.738 61.832 125.358 39.7594 125.358ZM160.78 127.323V125.056C160.78 111.909 167.583 106.77 180.735 107.829V95.1342C159.116 93.6228 147.627 104.957 147.627 125.056V127.323H135.534V140.016H147.627V202.885H160.78V140.016H180.735V127.323H160.78Z" fill="#061A62"></path>
</svg>
