<?xml version="1.0" encoding="utf-8"?>
<!-- Generator: Adobe Illustrator 26.5.0, SVG Export Plug-In . SVG Version: 6.00 Build 0)  -->
<svg version="1.1" id="Layer_1" xmlns="http://www.w3.org/2000/svg" xmlns:xlink="http://www.w3.org/1999/xlink" x="0px" y="0px"
	 viewBox="0 0 209 34" style="enable-background:new 0 0 209 34;" xml:space="preserve">
<style type="text/css">
	.st0{fill:#14ABE2;}
	.st1{fill:#072772;}
</style>
<path class="st0" d="M16.6,17c2.1-2.1,4.8-4.6,7.5-4.6s5.4,2.5,7.5,4.6l0,0c-2.1,2.1-4.8,4.6-7.5,4.6S18.7,19.1,16.6,17L16.6,17
	L16.6,17z"/>
<path class="st1" d="M59.1,14.6c0-1.3,1.3-2.2,3.9-2.2c1.6,0,3.3,0.3,4.7,1.3l1.3-2.4c-1.4-0.9-3.9-1.5-6-1.5c-4.2,0-6.9,2-6.9,4.9
	c0,6.5,10.4,3.3,10.4,7c0,1.4-1.2,2.2-3.9,2.2c-2.1,0-4.4-0.7-5.8-1.7l-1.2,2.4c1.4,1.1,4.1,1.9,6.8,1.9c4.4,0,7.1-1.9,7.1-4.9
	C69.5,15.3,59.1,18.5,59.1,14.6z"/>
<path class="st1" d="M79.9,12.4c1.8,0,3.4,0.8,4.5,2.4l2.2-1.4c-1.3-2.3-3.7-3.5-6.7-3.5c-5.1,0-8.7,3.5-8.7,8.3
	c0,4.9,3.6,8.4,8.7,8.4c2.9,0,5.4-1.2,6.7-3.5l-2.2-1.4c-1,1.6-2.6,2.4-4.5,2.4c-3.2,0-5.7-2.2-5.7-5.8
	C74.2,14.7,76.7,12.4,79.9,12.4z"/>
<path class="st1" d="M96,9.8c-2.6,0-5.1,0.8-6.8,2.1l1.2,2.2c1.3-1.1,3.3-1.8,5.2-1.8c2.9,0,4.4,1.4,4.4,4v0.6h-4.7
	c-4.9,0-6.6,2.2-6.6,4.8c0,2.8,2.4,4.8,6.1,4.8c2.6,0,4.4-0.9,5.4-2.4v2.2h2.8v-10C103.1,11.9,100.5,9.8,96,9.8z M100.1,21.3
	c-0.8,1.9-2.5,2.9-4.7,2.9s-3.6-1-3.6-2.6c0-1.4,0.8-2.5,3.8-2.5h4.6v2.2H100.1z"/>
<rect x="106.7" y="3.4" class="st1" width="3" height="23.1"/>
<path class="st1" d="M120.9,9.8c-4.7,0-8.2,3.5-8.2,8.3c0,4.9,3.5,8.4,8.8,8.4c2.7,0,5-0.9,6.5-2.6l-1.6-1.9c-1.2,1.3-2.8,2-4.7,2
	c-3.3,0-5.6-1.9-5.9-4.8h13.3c0-0.3,0.1-0.6,0.1-0.9C129,13.2,125.6,9.8,120.9,9.8z M115.6,17c0.3-2.8,2.4-4.7,5.3-4.7s5,2,5.3,4.7
	H115.6z"/>
<path class="st1" d="M167.9,12.4c1.8,0,3.4,0.8,4.5,2.4l2.2-1.4c-1.3-2.3-3.7-3.5-6.7-3.5c-5.1,0-8.7,3.5-8.7,8.3
	c0,4.9,3.6,8.4,8.7,8.4c2.9,0,5.4-1.2,6.7-3.5l-2.2-1.4c-1,1.6-2.6,2.4-4.5,2.4c-3.2,0-5.7-2.2-5.7-5.8S164.6,12.4,167.9,12.4z"/>
<path class="st1" d="M189.4,18.4c0,3.5-2,5.5-5.1,5.5c-2.8,0-4.4-1.6-4.4-4.8V9.9h-3v9.5c0,4.8,2.8,7.1,7.1,7.1c2.3,0,4.4-1,5.6-2.6
	v2.5h2.8V9.9h-3L189.4,18.4L189.4,18.4z"/>
<path class="st1" d="M198.6,14.6c0-1.3,1.3-2.2,3.9-2.2c1.6,0,3.3,0.3,4.7,1.3l1.3-2.4c-1.4-0.9-3.9-1.5-6-1.5c-4.2,0-6.9,2-6.9,4.9
	c0,6.5,10.4,3.3,10.4,7c0,1.4-1.2,2.2-3.9,2.2c-2.1,0-4.4-0.7-5.8-1.7l-1.2,2.4c1.4,1.1,4.1,1.9,6.8,1.9c4.4,0,7.1-1.9,7.1-4.9
	C209,15.3,198.6,18.5,198.6,14.6z"/>
<path class="st1" d="M132.9,8.5v1.4H130v2.4h2.8v14h3v-14h3.1V9.9h-3.1V8.5c0-1.9,0.9-2.9,2.6-2.9c0.2,0,0.3,0,0.4,0V3.2
	c-0.2,0-0.4,0-0.6,0C134.8,3.2,132.9,5.3,132.9,8.5z"/>
<path class="st1" d="M148.2,9.8c-4.6,0-8.3,3.7-8.3,8.3s3.7,8.3,8.3,8.3s8.3-3.7,8.3-8.3S152.8,9.8,148.2,9.8z M148.3,23.9
	c-3.1,0-5.7-2.5-5.7-5.7s2.6-5.7,5.7-5.7c3.1,0,5.7,2.5,5.7,5.7S151.4,23.9,148.3,23.9z"/>
<path class="st1" d="M32.5,22.9c-2.8,2.1-4.8,3.3-6.2,3.9c-0.4,0.2-0.9,0.4-1.4,0.4c-0.2,0-0.4,0-0.5,0.1c-0.8,0.1-1.7-0.1-2.5-0.5
	c-1.3-0.6-3.4-1.8-6.2-3.9c-0.4-0.3-0.7-0.6-1.1-0.9l0,0C13.1,20.9,4,13.1,4,13.1L0,17c0.1,0.1,0.2,0.2,0.3,0.3
	c0.1,0.1,0.2,0.2,0.3,0.3c0.3,0.3,0.7,0.6,1,1c0.2,0.2,0.5,0.4,0.7,0.7c0.3,0.3,0.6,0.6,0.9,0.8c0.1,0.1,0.3,0.2,0.4,0.4
	c0.7,0.6,1.4,1.3,2.1,1.9c5.6,5,12.3,10,16.9,10.9c0.5,0.1,1,0.2,1.5,0.2c0.1,0,0.2,0,0.3,0h0.1c0.2,0,0.3,0,0.5-0.1
	c0.2,0,0.4-0.1,0.6-0.1c0.1,0,0.2,0,0.3-0.1l0,0c0.2-0.1,0.4-0.1,0.7-0.2c3.8-1.2,8.8-4.7,13.4-8.5l-4.6-3.9
	C34.4,21.4,33.4,22.2,32.5,22.9z"/>
<path class="st1" d="M46.6,15.4c-0.2-0.2-0.5-0.4-0.7-0.7c-0.3-0.3-0.6-0.6-0.9-0.8c-0.1-0.1-0.3-0.2-0.4-0.4
	c-0.7-0.6-1.4-1.3-2.1-1.9c-5.7-5-12.3-10-16.9-10.9c-0.5-0.1-1-0.2-1.5-0.2c-0.1,0-0.2,0-0.3,0h-0.1c-0.2,0-0.3,0-0.5,0
	s-0.4,0.1-0.6,0.1c-0.1,0-0.2,0-0.3,0.1l0,0c-0.2,0.1-0.4,0.1-0.7,0.2c-3.8,1.2-8.8,4.7-13.4,8.5l0,0l4.6,3.9
	c0.9-0.8,1.9-1.5,2.8-2.2c2.8-2.1,4.8-3.3,6.2-3.9c0.4-0.2,0.9-0.4,1.4-0.4c0.2,0,0.4,0,0.5-0.1c0.9,0,1.7,0.1,2.5,0.5
	c1.3,0.6,3.4,1.8,6.2,3.9c1.5,1.1,6,4.9,6.1,5c0.2,0.2,5.5,4.7,5.5,4.7l4-3.9c-0.2-0.2-0.4-0.4-0.6-0.6C47.3,16,46.9,15.7,46.6,15.4
	z"/>
</svg>
