<?xml version="1.0" encoding="utf-8"?>
<svg xmlns="http://www.w3.org/2000/svg" fill="none" viewBox="0 0 189 26">
  <g clip-path="url(#a)">
    <path fill="#4B4E52" d="M112.252 19.86v-1.433c1.302 1.178 2.838 1.766 4.608 1.766 1.064 0 1.915-.251 2.544-.754.63-.502.949-1.178.949-2.03 0-.71-.2-1.263-.6-1.663-.4-.4-1.089-.808-2.068-1.225l-2.191-.924a13.75 13.75 0 0 1-.783-.353 9.375 9.375 0 0 1-.736-.413 3.312 3.312 0 0 1-.681-.54 4.755 4.755 0 0 1-.527-.651 2.684 2.684 0 0 1-.375-.83 4.02 4.02 0 0 1-.123-1.012c0-.813.212-1.51.634-2.098a3.715 3.715 0 0 1 1.638-1.285c.672-.272 1.417-.409 2.238-.409.774 0 1.528.111 2.255.332a6.162 6.162 0 0 1 1.911.936V8.65a6.274 6.274 0 0 0-4.145-1.507c-.97 0-1.77.23-2.391.685-.621.456-.936 1.107-.936 1.94 0 .682.213 1.213.634 1.6.421.388 1.076.758 1.961 1.115l2.311.97c1.119.49 1.932 1.035 2.43 1.63.497.596.744 1.366.744 2.302 0 1.179-.442 2.128-1.319 2.855-.881.728-2.008 1.09-3.383 1.09-.961 0-1.846-.136-2.646-.405-.8-.268-1.455-.625-1.962-1.063h.009Zm11.037 1.256V5.351h1.221v6.715c.354-.553.839-1.013 1.451-1.387a3.79 3.79 0 0 1 1.996-.558c1.2 0 2.123.35 2.766 1.047.642.698.966 1.638.966 2.813v7.127h-1.183v-6.966c0-.876-.23-1.583-.694-2.114-.464-.532-1.153-.8-2.076-.8a3.11 3.11 0 0 0-1.936.663c-.579.443-1.009 1-1.285 1.668v7.544h-1.221l-.005.013Zm16.82-5.318V13.64c0-.731-.238-1.319-.715-1.753-.476-.434-1.127-.65-1.948-.65a5.55 5.55 0 0 0-3.128.948v-1.161c.894-.6 1.975-.902 3.247-.902 1.144 0 2.051.306 2.719.923.668.617 1 1.455 1 2.523v7.544h-1.17v-1.017c-.251.307-.656.583-1.209.822a4.342 4.342 0 0 1-1.766.361c-1.119 0-2.063-.302-2.829-.906-.766-.604-1.149-1.409-1.149-2.408 0-1 .387-1.775 1.161-2.387.775-.613 1.728-.92 2.868-.92.6 0 1.17.115 1.711.345.54.23.944.494 1.213.796h-.005Zm0 2.868v-1.387c-.174-.464-.527-.847-1.063-1.15a3.58 3.58 0 0 0-1.788-.45c-.821 0-1.514.2-2.085.6-.57.4-.851.961-.851 1.689 0 .727.286 1.29.86 1.693.574.405 1.264.605 2.076.605a3.59 3.59 0 0 0 1.788-.451c.536-.303.893-.681 1.063-1.15Zm8.621-8.388v1.183a2.617 2.617 0 0 0-.995-.191c-.639 0-1.209.208-1.711.63-.502.416-.881.982-1.144 1.693v7.518h-1.222V10.346h1.222v1.72a3.347 3.347 0 0 1 1.165-1.392 2.986 2.986 0 0 1 1.749-.549c.285 0 .596.051.936.153Zm1.464 5.554c0 1.412.366 2.506 1.093 3.276.732.77 1.677 1.153 2.839 1.153.616 0 1.161-.08 1.638-.242.476-.162.94-.438 1.391-.821v1.195c-.774.626-1.817.936-3.127.936-1.515 0-2.732-.498-3.647-1.493-.915-.996-1.374-2.328-1.374-4.004 0-1.677.421-3.064 1.268-4.123.842-1.06 1.974-1.587 3.387-1.587 1.412 0 2.429.476 3.17 1.434.736.957 1.106 2.233 1.106 3.838v.438h-7.744Zm3.468-4.642c-.902 0-1.66.319-2.281.957-.621.638-1 1.536-1.145 2.69h6.528a5.242 5.242 0 0 0-.222-1.375 4.016 4.016 0 0 0-.557-1.153 2.567 2.567 0 0 0-.957-.817c-.4-.2-.856-.302-1.366-.302Zm7.446 9.926h-1.23V6.228h8.634v1.136h-7.404v5.672h7.012v1.115h-7.012v6.965ZM171.571 7.07c0 .23-.081.426-.238.587a.78.78 0 0 1-.579.243.808.808 0 0 1-.587-.243.798.798 0 0 1-.242-.587c0-.23.08-.413.242-.574a.801.801 0 0 1 .587-.243c.23 0 .422.081.579.243a.8.8 0 0 1 .238.574Zm-.212 3.28v10.766h-1.222V10.351h1.222Zm3.642-4.999v15.761h-1.221V5.352h1.221Zm3.025 10.481c0 1.412.366 2.506 1.094 3.276.732.77 1.677 1.153 2.838 1.153.617 0 1.162-.08 1.638-.242.477-.162.941-.438 1.392-.821v1.195c-.775.626-1.817.936-3.128.936-1.515 0-2.731-.498-3.646-1.493-.915-.996-1.375-2.328-1.375-4.004 0-1.677.422-3.064 1.268-4.123.847-1.06 1.975-1.587 3.387-1.587 1.413 0 2.43.476 3.17 1.434.736.957 1.107 2.233 1.107 3.838v.438h-7.745Zm3.468-4.642c-.902 0-1.659.319-2.28.957-.622.638-1 1.536-1.145 2.69h6.523a5.415 5.415 0 0 0-.217-1.375 4.042 4.042 0 0 0-.557-1.153 2.563 2.563 0 0 0-.958-.817c-.4-.2-.855-.302-1.366-.302Z" />
    <path fill="#5CE500" d="M20.53 17.385c0 .242-.17.54-.383.66l-5.323 3.071V9.262L4.561 3.339 9.884.267a.839.839 0 0 1 .766 0l9.88 5.706v11.412Zm-7.986-6.804-7.03-4.06a.865.865 0 0 0-.765 0l-4.75 2.745 7.413 4.28v8.562l4.749-2.745a.86.86 0 0 0 .383-.664v-8.118ZM0 17.827l5.127 2.962V14.86L0 17.827Z" />
    <path fill="#4B4E52" d="M31.836 5.969h-5.595v15.148h2.48v-5.945h3.132c3.387 0 5.255-1.655 5.255-4.663 0-1.366-.515-4.54-5.276-4.54h.004Zm2.753 4.582c0 1.707-.885 2.405-3.06 2.405h-2.803v-4.75h3.132c1.838 0 2.731.767 2.731 2.345Zm9.91-.472.187.09-.42 2.238-.29-.09a2.457 2.457 0 0 0-.72-.11c-2.318 0-2.505 1.846-2.505 4.08v4.825h-2.298V9.99h2.157v1.34c.587-.902 1.298-1.37 2.23-1.48.612-.073 1.208.012 1.663.23H44.5Zm5.65-.31c-1.808 0-3.258.689-4.19 1.99-.979 1.371-1.124 2.98-1.124 3.813 0 3.515 2.085 5.787 5.315 5.787 3.923 0 5.314-3.161 5.314-5.868 0-1.557-.463-2.97-1.297-3.978-.95-1.14-2.336-1.745-4.017-1.745Zm0 9.54c-1.799 0-2.914-1.43-2.914-3.732 0-2.302 1.12-3.775 2.915-3.775 1.796 0 2.936 1.464 2.936 3.732 0 2.268-1.128 3.774-2.936 3.774Zm24.633-9.23.187.09-.42 2.238-.29-.09a2.451 2.451 0 0 0-.715-.11c-2.319 0-2.506 1.846-2.506 4.08v4.825H68.74V9.99h2.157v1.34c.588-.902 1.298-1.37 2.23-1.48.613-.073 1.208.012 1.66.23h-.005Zm8.255 7.472-.043.123c-.48 1.366-1.625 1.655-2.506 1.655-1.74 0-2.86-1.153-2.966-3.029h7.864l.03-.217a6.79 6.79 0 0 0 .025-.885v-.2c-.115-3.115-2.145-5.204-5.05-5.204-1.698 0-3.09.668-4.026 1.932-.757 1.021-1.191 2.434-1.191 3.876 0 3.438 2.136 5.749 5.319 5.749 2.459 0 4.152-1.251 4.774-3.52l.072-.271H83.04v-.01h-.004Zm-5.438-3.247c.191-1.54 1.247-2.519 2.749-2.519 1.144 0 2.502.668 2.693 2.52H77.6Zm-13.05-3.378c-.74-.77-1.732-1.158-2.957-1.158-3.375 0-4.906 2.966-4.906 5.723 0 2.758 1.519 5.685 4.906 5.685 1.132 0 2.14-.417 2.868-1.166-.009.49-.022.958-.034 1.158-.124 1.834-1.009 2.689-2.775 2.689-.961 0-2.064-.34-2.276-1.298l-.047-.213h-2.264l.039.302c.238 1.962 1.957 3.179 4.493 3.179 2.221 0 3.804-.838 4.574-2.421.37-.762.557-1.877.557-3.306V9.985h-2.174v.94h-.004Zm-2.813 8.2c-.804 0-2.672-.367-2.672-3.732 0-2.213 1.047-3.592 2.732-3.592 1.302 0 2.693.945 2.693 3.592 0 2.336-1.03 3.731-2.753 3.731Zm34.321-1.358c0 1.77-1.468 3.553-4.748 3.553-2.902 0-4.63-1.255-4.86-3.536l-.025-.234h2.264l.034.17c.276 1.37 1.583 1.66 2.63 1.66 1.148 0 2.374-.37 2.374-1.409 0-.523-.34-.898-1.017-1.106-.4-.12-.89-.255-1.413-.404-.894-.251-1.821-.51-2.391-.707-1.413-.506-2.222-1.489-2.222-2.702 0-2.242 2.183-3.246 4.345-3.246 2.893 0 4.391 1.09 4.578 3.332l.017.23h-2.23l-.03-.18c-.225-1.289-1.505-1.48-2.25-1.48-.642 0-2.14.115-2.14 1.183 0 .485.412.842 1.268 1.089.255.072.634.17 1.068.28.906.235 2.038.528 2.608.724 1.417.498 2.136 1.434 2.136 2.783h.004Zm10.617 0c0 1.77-1.468 3.553-4.749 3.553-2.902 0-4.63-1.255-4.86-3.536l-.025-.234h2.264l.034.17c.277 1.37 1.583 1.66 2.63 1.66 1.148 0 2.374-.37 2.374-1.409 0-.523-.34-.898-1.017-1.106-.4-.12-.894-.255-1.413-.404-.893-.251-1.821-.51-2.387-.707-1.413-.506-2.22-1.489-2.22-2.702 0-2.242 2.182-3.246 4.343-3.246 2.894 0 4.392 1.09 4.579 3.332l.021.23h-2.229l-.03-.18c-.226-1.289-1.507-1.48-2.251-1.48-.643 0-2.14.115-2.14 1.183 0 .485.412.842 1.268 1.089.255.072.634.17 1.072.28.906.235 2.038.528 2.608.724 1.417.498 2.136 1.434 2.136 2.783h-.008Zm1.816-6.583a1.555 1.555 0 0 1-1.566-1.583c0-.915.711-1.583 1.566-1.583.856 0 1.566.668 1.566 1.583 0 .915-.71 1.583-1.566 1.583Zm0-2.898c-.71 0-1.28.545-1.28 1.315 0 .77.57 1.315 1.28 1.315.711 0 1.281-.545 1.281-1.315 0-.77-.57-1.315-1.281-1.315Zm-.183 1.609v.527h-.468V8.76h.779c.37 0 .613.217.613.578 0 .26-.124.434-.319.502l.378.58h-.519l-.319-.528h-.149.004v.004Zm.26-.745h-.26v.37h.26c.14 0 .217-.068.217-.183 0-.115-.077-.191-.217-.191v.004Zm78.867 2.034a1.555 1.555 0 0 1-1.566-1.583c0-.915.711-1.583 1.566-1.583.856 0 1.566.668 1.566 1.583 0 .915-.71 1.583-1.566 1.583Zm0-2.898c-.71 0-1.28.545-1.28 1.315 0 .77.57 1.315 1.28 1.315.711 0 1.281-.545 1.281-1.315 0-.77-.57-1.315-1.281-1.315Zm-.178 1.609v.527h-.468V8.76h.778c.37 0 .613.217.613.578 0 .26-.123.434-.319.502l.379.58h-.52l-.319-.528h-.149.005v.004Zm.259-.745h-.259v.37h.259c.141 0 .217-.068.217-.183 0-.115-.076-.191-.217-.191v.004Z" />
  </g>
  <defs>
    <clipPath id="a">
      <path fill="#fff" d="M0 .173h189v25.654H0z" />
    </clipPath>
  </defs>
</svg>